<svg width="20" height="20" viewBox="0 0 20 20" fill="none" xmlns="http://www.w3.org/2000/svg">
<path fill-rule="evenodd" clip-rule="evenodd" d="M20 10C20 15.5228 15.5228 20 10 20C4.47715 20 0 15.5228 0 10C0 4.47715 4.47715 0 10 0C15.5228 0 20 4.47715 20 10ZM4.77259 4.77267C5.35838 4.18689 6.30813 4.18689 6.89391 4.77267L9.99992 7.87868L13.1059 4.77267C13.6917 4.18689 14.6415 4.18689 15.2272 4.77267C15.813 5.35846 15.813 6.30821 15.2272 6.89399L12.1212 10L15.2272 13.106C15.813 13.6918 15.813 14.6415 15.2272 15.2273C14.6415 15.8131 13.6917 15.8131 13.1059 15.2273L9.99992 12.1213L6.89391 15.2273C6.30813 15.8131 5.35838 15.8131 4.77259 15.2273C4.18681 14.6415 4.18681 13.6918 4.77259 13.106L7.8786 10L4.77259 6.89399C4.18681 6.30821 4.18681 5.35846 4.77259 4.77267Z" fill="#323232"/>
</svg>
