<svg width="24" height="24" viewBox="0 0 24 24" fill="none" xmlns="http://www.w3.org/2000/svg">
<path d="M4.46884 10.5851C4.58658 8.77802 5.54036 7.47754 7.03652 6.63619C8.55753 5.78087 10.6211 5.42029 12.8057 5.58233C16.2418 5.83721 17.9692 7.16281 18.801 8.54535C19.6041 9.8804 19.6533 11.3991 19.426 12.4057C19.887 12.7305 20.2841 13.1328 20.5794 13.6123C20.6554 13.4222 20.7213 13.2273 20.7767 13.0278C21.1521 11.6759 21.1467 9.5723 20.0291 7.71467C18.889 5.81953 16.6794 4.32129 12.9073 4.04149C10.5378 3.86572 8.18249 4.24337 6.354 5.27161C4.50065 6.31382 3.17431 8.04225 3.01558 10.4787C2.89726 12.2947 3.46572 13.5994 4.2839 14.5608C4.89005 15.2731 5.63069 15.7893 6.25428 16.1874L5.31706 18.9678C5.20759 19.2925 5.31447 19.6549 5.57896 19.8557C5.84345 20.0564 6.20142 20.0469 6.45608 19.8323L9.08759 17.615C9.53864 17.7213 10.4558 18.0028 10.8913 18.0681C10.6076 17.6818 9.92622 17.0517 9.81335 16.5771C9.78409 16.4541 9.76043 16.3222 9.74363 16.1833C9.5255 16.137 9.30481 16.0853 9.08168 16.0278C8.86328 15.9716 8.63263 16.0254 8.45668 16.1737L7.54771 16.9396L7.82816 16.1076C7.94546 15.7596 7.81383 15.3723 7.51414 15.1836L7.36102 15.0875C6.65771 14.6463 5.93079 14.1904 5.3654 13.526C4.79161 12.8518 4.3798 11.9518 4.46884 10.5851Z" fill="#616161"/>
<path d="M18.1321 17.9883L17.6574 18.5685C17.46 18.407 17.3581 18.1563 17.3869 17.903C17.4156 17.6496 17.5711 17.4284 17.7997 17.3157L18.1321 17.9883ZM15.1945 11.4244L15.1873 12.1744L15.1945 11.4244ZM10.5035 15.629L11.2375 15.476L11.2375 15.476L10.5035 15.629ZM17.0297 18.4325L16.9103 17.6919C17.0171 17.6748 17.1263 17.681 17.2305 17.7101L17.0297 18.4325ZM19.525 19.1283L19.9996 18.5481C20.2743 18.7729 20.3541 19.1593 20.1908 19.4741C20.0276 19.7889 19.6659 19.9461 19.3241 19.8508L19.525 19.1283ZM15.1873 12.1744C13.1873 12.1533 12.1975 12.797 11.71 13.4463C11.1959 14.131 11.1305 14.9646 11.2375 15.476L9.76939 15.7821C9.58955 14.9231 9.69447 13.6315 10.5101 12.545C11.3523 11.4232 12.8514 10.6497 15.2017 10.6745L15.1873 12.1744ZM11.2375 15.476C11.3794 16.1537 11.9197 16.8316 12.9008 17.2897C13.8777 17.7459 15.2519 17.9577 16.9103 17.6919L17.149 19.1731C15.2493 19.4775 13.5627 19.2537 12.2672 18.6487C10.9758 18.0457 10.0321 17.0367 9.76939 15.7821L11.2375 15.476ZM17.2305 17.7101L19.7258 18.4059L19.3241 19.8508L16.8288 19.1549L17.2305 17.7101ZM19.0503 19.7086L17.6574 18.5685L18.6068 17.4081L19.9996 18.5481L19.0503 19.7086ZM17.7997 17.3157C18.2841 17.0767 18.7321 16.8666 19.0864 16.5296C19.4045 16.2271 19.6533 15.8122 19.6599 15.1178L21.1598 15.1336C21.149 16.2621 20.7111 17.0554 20.1207 17.6169C19.5667 18.1439 18.8845 18.4537 18.4644 18.661L17.7997 17.3157ZM19.6599 15.1178C19.6686 14.2064 19.2244 13.5106 18.4371 13.0056C17.6253 12.4849 16.4653 12.1879 15.1873 12.1744L15.2017 10.6745C16.6722 10.69 18.1315 11.0283 19.2461 11.7432C20.3852 12.4739 21.1744 13.6143 21.1598 15.1336L19.6599 15.1178Z" fill="#616161"/>
</svg>
