<svg width="44" height="49" viewBox="0 0 44 49" fill="none" xmlns="http://www.w3.org/2000/svg">
<path fill-rule="evenodd" clip-rule="evenodd" d="M43.874 22.1717C43.874 34.2872 34.0525 44.1087 21.937 44.1087C19.2933 44.1087 16.7588 43.6411 14.4118 42.784C8.25825 47.7284 3.66626 48.475 2.18379 48.1785C3.6816 46.3225 6.21118 41.2366 4.55067 35.5507C1.69713 31.8479 0 27.208 0 22.1717C0 10.0563 9.82153 0.234741 21.937 0.234741C34.0525 0.234741 43.874 10.0563 43.874 22.1717ZM23.823 6.68679C23.823 7.55662 23.2342 8.28892 22.4334 8.50679V10.3595H24.8157C25.0804 10.4919 25.6098 10.836 25.6098 11.1536C29.3817 11.2198 36.9257 13.6352 36.9257 22.7673V26.043C36.7272 27.9621 35.0596 32.0782 29.9773 33.1899H21.9371H13.8968C8.81457 32.0782 7.14696 27.9621 6.94844 26.043V22.7673C6.94844 13.6352 14.4924 11.2198 18.2644 11.1536C18.2644 10.836 18.7938 10.4919 19.0585 10.3595H21.4408V8.50679C20.6399 8.28893 20.0511 7.55663 20.0511 6.68679C20.0511 5.64519 20.8955 4.80081 21.9371 4.80081C22.9787 4.80081 23.823 5.64519 23.823 6.68679ZM22.0361 24.2562C21.3413 24.2562 20.845 25.09 20.845 25.6459H13.301C12.1761 25.4143 9.92612 24.3952 9.92612 22.1717C9.92612 19.3924 12.904 17.5064 14.5915 17.5064H29.5801C31.3668 17.5064 34.2454 19.3924 34.2454 22.1717C34.2454 24.3952 31.9955 25.4143 30.8705 25.6459H23.3266C23.3266 25.09 22.731 24.2562 22.0361 24.2562ZM27.297 23.6608C28.4482 23.6608 29.3815 22.7275 29.3815 21.5763C29.3815 20.425 28.4482 19.4918 27.297 19.4918C26.1457 19.4918 25.2125 20.425 25.2125 21.5763C25.2125 22.7275 26.1457 23.6608 27.297 23.6608ZM19.0583 21.5763C19.0583 22.7275 18.1251 23.6608 16.9738 23.6608C15.8226 23.6608 14.8893 22.7275 14.8893 21.5763C14.8893 20.425 15.8226 19.4918 16.9738 19.4918C18.1251 19.4918 19.0583 20.425 19.0583 21.5763ZM25.8433 28.1043C26.0206 28.2333 26.0598 28.4816 25.9308 28.659C25.0428 29.88 23.5164 30.4603 22.0115 30.4603C20.5048 30.4603 18.9413 29.88 17.957 28.6769C17.8181 28.5072 17.8432 28.257 18.0129 28.1181C18.1826 27.9793 18.4327 28.0043 18.5716 28.174C19.374 29.1547 20.6891 29.6662 22.0115 29.6662C23.3355 29.6662 24.5884 29.1547 25.2886 28.1919C25.4176 28.0146 25.6659 27.9754 25.8433 28.1043Z" fill="#ffffff"/>
</svg>
