<?xml version="1.0" encoding="UTF-8"?>
<svg xmlns="http://www.w3.org/2000/svg" xmlns:xlink="http://www.w3.org/1999/xlink" width="30px" height="30px" viewBox="0 0 30 30" version="1.1">
<g id="surface1">
<path style=" stroke:none;fill-rule:nonzero;fill:rgb(32,32,32);fill-opacity:1;" d="M 15 0 C 6.730469 0 0 6.730469 0 15 C 0 23.269531 6.730469 30 15 30 C 23.269531 30 30 23.269531 30 15 C 30 6.730469 23.269531 0 15 0 Z M 15 28.042969 C 11.210938 28.042969 7.800781 26.410156 5.417969 23.820312 C 6.628906 21.4375 8.671875 19.621094 11.109375 18.671875 C 9.324219 17.433594 8.152344 15.375 8.152344 13.042969 C 8.152344 9.265625 11.222656 6.195312 15 6.195312 C 18.777344 6.195312 21.847656 9.265625 21.847656 13.042969 C 21.847656 15.375 20.675781 17.433594 18.894531 18.667969 C 21.332031 19.617188 23.375 21.433594 24.589844 23.8125 C 22.203125 26.40625 18.792969 28.042969 15 28.042969 Z M 15 28.042969 "/>
</g>
</svg>
